<svg width="200" height="40" viewBox="0 0 200 40" fill="none" xmlns="http://www.w3.org/2000/svg">
<rect width="200" height="40" rx="20" fill="#00E63A"/>
<g clip-path="url(#clip0_347_2149)">
<path d="M102.842 30.8555C103.044 30.6539 103.213 30.4322 103.362 30.2012L118.866 14.6973C120.377 13.1841 120.379 10.7311 118.866 9.21718C117.353 7.70546 114.9 7.70402 113.386 9.21718L100.035 22.5694L86.613 9.14974C85.0998 7.6373 82.6475 7.63658 81.1336 9.14974C80.3781 9.90739 79.9986 10.8982 80 11.8891C79.9986 12.8806 80.3781 13.8722 81.1351 14.6269L96.7064 30.2005C96.8549 30.4322 97.0257 30.6532 97.2295 30.8555C98.0029 31.629 99.0203 32.0013 100.035 31.9834C101.048 32.0021 102.068 31.629 102.842 30.8555Z" fill="white"/>
</g>
<g clip-path="url(#clip1_347_2149)">
<path d="M157.842 30.8555C158.044 30.6539 158.213 30.4322 158.362 30.2012L173.866 14.6973C175.377 13.1841 175.379 10.7311 173.866 9.21718C172.353 7.70546 169.9 7.70402 168.386 9.21718L155.035 22.5694L141.613 9.14974C140.1 7.6373 137.647 7.63658 136.134 9.14974C135.378 9.90739 134.999 10.8982 135 11.8891C134.999 12.8806 135.378 13.8722 136.135 14.6269L151.706 30.2005C151.855 30.4322 152.026 30.6532 152.229 30.8555C153.003 31.629 154.02 32.0013 155.035 31.9834C156.048 32.0021 157.068 31.629 157.842 30.8555Z" fill="white"/>
</g>
<g clip-path="url(#clip2_347_2149)">
<path d="M47.8416 30.8555C48.0439 30.6539 48.2132 30.4322 48.3617 30.2012L63.8657 14.6973C65.3774 13.1841 65.3788 10.7311 63.8657 9.21718C62.3525 7.70546 59.9002 7.70402 58.3856 9.21718L45.0348 22.5694L31.613 9.14974C30.0998 7.6373 27.6475 7.63658 26.1336 9.14974C25.3781 9.90739 24.9986 10.8982 25 11.8891C24.9986 12.8806 25.3781 13.8722 26.1351 14.6269L41.7064 30.2005C41.8549 30.4322 42.0257 30.6532 42.2295 30.8555C43.0029 31.629 44.0203 32.0013 45.0348 31.9834C46.0479 32.0021 47.0681 31.629 47.8416 30.8555Z" fill="white"/>
</g>
<defs>
<clipPath id="clip0_347_2149">
<rect width="40" height="40" fill="white" transform="translate(80)"/>
</clipPath>
<clipPath id="clip1_347_2149">
<rect width="40" height="40" fill="white" transform="translate(135)"/>
</clipPath>
<clipPath id="clip2_347_2149">
<rect width="40" height="40" fill="white" transform="translate(25)"/>
</clipPath>
</defs>
</svg>
