<svg width="20" height="20" viewBox="0 0 20 20" fill="none" xmlns="http://www.w3.org/2000/svg">
<path d="M13.75 7.50007C14.0755 7.8255 14.0755 8.35317 13.75 8.67859L9.75596 12.6727C9.43054 12.9981 8.90287 12.9981 8.57746 12.6727L6.66671 10.7619C6.34127 10.4365 6.34127 9.90884 6.66671 9.58342C6.99215 9.258 7.51978 9.258 7.84522 9.58342L9.16671 10.9049L12.5715 7.50007C12.6122 7.45939 12.656 7.42379 12.7023 7.39329C13.0257 7.17972 13.4653 7.21531 13.75 7.50007Z" fill="white"/>
<path fill-rule="evenodd" clip-rule="evenodd" d="M18.3333 10.0001C18.3333 14.6024 14.6023 18.3334 9.99996 18.3334C5.39758 18.3334 1.66663 14.6024 1.66663 10.0001C1.66663 5.39771 5.39758 1.66675 9.99996 1.66675C14.6023 1.66675 18.3333 5.39771 18.3333 10.0001ZM16.6666 10.0001C16.6666 13.682 13.6819 16.6667 9.99996 16.6667C6.31806 16.6667 3.33329 13.682 3.33329 10.0001C3.33329 6.31818 6.31806 3.33341 9.99996 3.33341C13.6819 3.33341 16.6666 6.31818 16.6666 10.0001Z" fill="white"/>
</svg>
