<svg width="24" height="24" viewBox="0 0 24 24" fill="none" xmlns="http://www.w3.org/2000/svg">
<path fill-rule="evenodd" clip-rule="evenodd" d="M8 3.98242V5.98242H4C3.44772 5.98242 3 6.43014 3 6.98242C3 7.53471 3.44772 7.98242 4 7.98242H20C20.5523 7.98242 21 7.53471 21 6.98242C21 6.43014 20.5523 5.98242 20 5.98242H16V3.98242C16 2.87785 15.1046 1.98242 14 1.98242H10C8.89543 1.98242 8 2.87785 8 3.98242ZM14 3.98242H10V5.98242H14V3.98242Z" fill="black"/>
<path fill-rule="evenodd" clip-rule="evenodd" d="M19 8.98242H5V18.9824C5 20.6393 6.34315 21.9824 8 21.9824H16C17.6569 21.9824 19 20.6393 19 18.9824V8.98242ZM9 17.9824V11.9824H11V17.9824H9ZM13 17.9824V11.9824H15V17.9824H13Z" fill="black"/>
</svg>
